<?xml version="1.0" encoding="UTF-8"?>
<svg id="Layer_2" data-name="Layer 2" xmlns="http://www.w3.org/2000/svg" viewBox="0 0 500 237.16">
  <defs>
    <style>
      .cls-1 {
        fill: #37d76a;
      }

      .cls-2 {
        fill: #034338;
      }
    </style>
  </defs>
  <g id="Layer_1-2" data-name="Layer 1">
    <g>
      <path class="cls-2" d="m0,235.55v-106.47h86.17v17.23H19.28l2.19-2.19v34.03l-2.19-2.19h61.05v16.21H19.28l2.19-2.19v45.57H0Z"/>
      <path class="cls-2" d="m98.43,147.05v-17.96h20.74v17.96h-20.74Zm0,88.5v-77.7h20.74v77.7h-20.74Z"/>
      <path class="cls-2" d="m134.65,235.55v-77.7h20.01l.73,14.75h1.17c2.73-5.26,6.84-9.27,12.34-12.05,5.5-2.77,11.41-4.16,17.74-4.16,4.96,0,9.52.66,13.65,1.97,4.14,1.31,7.69,3.36,10.66,6.13,2.97,2.77,5.28,6.5,6.94,11.17,1.65,4.67,2.48,10.42,2.48,17.23v42.65h-20.74v-38.99c0-5.35-.68-9.81-2.04-13.36-1.36-3.55-3.53-6.25-6.5-8.11-2.97-1.85-6.79-2.77-11.46-2.77s-9.11,1.05-12.71,3.14c-3.6,2.09-6.43,4.99-8.47,8.69-2.04,3.7-3.07,7.98-3.07,12.85v38.56h-20.74Z"/>
      <path class="cls-2" d="m269.89,237.16c-5.75,0-11-.93-15.77-2.77-4.77-1.85-8.86-4.58-12.27-8.18-3.41-3.6-6.01-7.89-7.81-12.85-1.8-4.97-2.7-10.46-2.7-16.5,0-8.27,1.58-15.43,4.75-21.47,3.16-6.04,7.69-10.71,13.58-14.02,5.89-3.31,12.68-4.96,20.37-4.96,4.67,0,8.91.61,12.71,1.83,3.8,1.22,7.16,2.97,10.08,5.26,2.92,2.29,5.21,5.04,6.86,8.25h.88v-42.64h20.74v106.47h-19.86l-.44-13.58h-.88c-2.34,4.48-6.04,8.13-11.1,10.95-5.06,2.82-11.44,4.24-19.13,4.24Zm6.28-15.92c4.97,0,9.27-.95,12.92-2.85,3.65-1.9,6.45-4.53,8.4-7.89,1.95-3.36,2.92-7.18,2.92-11.46v-4.38c0-3.31-.56-6.33-1.68-9.05-1.12-2.72-2.73-5.09-4.82-7.08-2.09-1.99-4.65-3.5-7.67-4.53-3.02-1.02-6.38-1.53-10.08-1.53-4.97,0-9.25.95-12.85,2.85-3.6,1.9-6.38,4.67-8.32,8.32-1.95,3.65-2.92,8.06-2.92,13.22s.97,9.3,2.92,13c1.95,3.7,4.72,6.52,8.32,8.47,3.6,1.95,7.89,2.92,12.85,2.92Z"/>
      <path class="cls-2" d="m379.27,236.87c-9.35,0-17.43-1.61-24.24-4.82-6.82-3.21-12.1-7.79-15.85-13.73-3.75-5.94-5.62-13.05-5.62-21.32s1.85-15.58,5.55-21.61c3.7-6.04,8.98-10.71,15.85-14.02,6.86-3.31,14.82-4.96,23.88-4.96,9.73,0,17.99,1.78,24.75,5.33,6.77,3.56,11.83,8.64,15.19,15.26,3.36,6.62,4.7,14.6,4.02,23.95h-68.64c.19,4.58,1.34,8.47,3.43,11.68,2.09,3.21,5.04,5.67,8.84,7.38,3.8,1.7,8.23,2.56,13.29,2.56,6.04,0,11.12-1.05,15.26-3.14,4.14-2.09,6.79-4.84,7.96-8.25h19.72c-.78,5.06-3.16,9.54-7.16,13.44-3.99,3.9-9.11,6.91-15.34,9.06-6.23,2.14-13.19,3.21-20.88,3.21Zm-25.56-46.44l-.73-1.17h50.53l-1.17,1.02c-.1-3.99-1.1-7.45-2.99-10.37-1.9-2.92-4.58-5.16-8.03-6.72-3.46-1.56-7.62-2.34-12.49-2.34s-9.08.78-12.63,2.34c-3.56,1.56-6.4,3.8-8.54,6.72-2.14,2.92-3.46,6.43-3.94,10.52Z"/>
      <path class="cls-2" d="m435.06,235.55v-77.7h18.84l.88,12.85h.58c1.75-4.28,4.5-7.69,8.25-10.22,3.75-2.53,8.3-3.8,13.66-3.8,1.36,0,2.63.05,3.8.15,1.17.1,2.14.2,2.92.29v18.84c-1.07-.19-2.22-.37-3.43-.51-1.22-.15-2.46-.22-3.72-.22-4.09,0-7.69.73-10.81,2.19-3.12,1.46-5.55,3.72-7.3,6.79-1.75,3.07-2.73,6.99-2.92,11.76v39.58h-20.74Z"/>
      <path class="cls-1" d="m487.57,236.87c-1.9,0-3.61-.24-5.13-.73-1.52-.49-2.83-1.21-3.94-2.16-1.11-.95-1.95-2.1-2.53-3.44-.58-1.35-.87-2.88-.87-4.59,0-2.27.51-4.22,1.54-5.84,1.03-1.62,2.47-2.88,4.33-3.76,1.86-.88,4.06-1.33,6.59-1.33,1.85,0,3.54.25,5.07.75,1.53.5,2.84,1.22,3.94,2.16,1.09.94,1.94,2.08,2.53,3.42.59,1.35.89,2.88.89,4.59,0,2.24-.51,4.18-1.54,5.82-1.03,1.64-2.47,2.9-4.33,3.78-1.86.88-4.04,1.33-6.55,1.33Z"/>
      <path class="cls-2" d="m0,106.75V0h21.53v45.69l-1.61-1.61h66.63l-1.46,1.61V0h21.53v106.75h-21.53v-47.15l1.46,1.61H19.92l1.61-1.61v47.15H0Z"/>
      <path class="cls-2" d="m260.51,108.22c-12.99,0-22.99-2.37-30.02-7.1-7.03-4.73-10.74-11.06-11.13-18.96h20.35c.29,4.2,2.24,7.45,5.86,9.74,3.61,2.29,8.74,3.44,15.38,3.44,5.95,0,10.64-.83,14.06-2.49,3.42-1.66,5.13-4.2,5.13-7.61,0-2.54-.66-4.51-1.98-5.93-1.32-1.41-3.49-2.44-6.52-3.08-3.03-.63-7.18-1.19-12.45-1.68-6.64-.68-12.33-1.56-17.06-2.64-4.74-1.07-8.57-2.44-11.5-4.1-2.93-1.66-5.1-3.81-6.52-6.44-1.42-2.64-2.12-5.86-2.12-9.67,0-4.98,1.56-9.3,4.69-12.96,3.12-3.66,7.54-6.47,13.25-8.42,5.71-1.95,12.57-2.93,20.57-2.93,7.52,0,14.01.98,19.48,2.93,5.47,1.95,9.79,4.76,12.96,8.42,3.17,3.66,4.95,8.13,5.34,13.4h-19.62c-.39-2.73-1.39-4.98-3-6.74-1.61-1.76-3.71-3.05-6.3-3.88-2.59-.83-5.59-1.24-9.01-1.24-5.27,0-9.62.78-13.03,2.34-3.42,1.56-5.13,4.05-5.13,7.47,0,2.25.71,4,2.12,5.27,1.41,1.27,3.68,2.22,6.81,2.86,3.12.64,7.22,1.24,12.3,1.83,6.64.49,12.35,1.25,17.13,2.27,4.78,1.03,8.64,2.44,11.57,4.25,2.93,1.81,5.08,4.08,6.44,6.81,1.37,2.73,2.05,6.2,2.05,10.4,0,7.32-3.29,13.23-9.88,17.72-6.59,4.49-16.67,6.74-30.24,6.74Z"/>
      <path class="cls-2" d="m340.17,106.75c-4.1,0-7.66-.66-10.69-1.98-3.03-1.32-5.35-3.32-6.96-6-1.61-2.68-2.42-6.08-2.42-10.18v-43.93h-15.23v-15.82h15.23V8.05l20.35-3.95v24.75h19.92v15.82h-19.92v37.49c0,2.54.68,4.3,2.05,5.27,1.37.98,3.37,1.46,6,1.46h11.86v17.87h-20.21Z"/>
      <path class="cls-2" d="m412.51,108.07c-9.37,0-17.48-1.61-24.31-4.83-6.83-3.22-12.13-7.81-15.89-13.77-3.76-5.95-5.64-13.08-5.64-21.38s1.85-15.62,5.56-21.67c3.71-6.05,9.01-10.74,15.89-14.06,6.88-3.32,14.86-4.98,23.94-4.98,9.76,0,18.03,1.78,24.82,5.34,6.78,3.57,11.86,8.67,15.23,15.3,3.37,6.64,4.71,14.64,4.03,24.02h-68.83c.19,4.59,1.34,8.49,3.44,11.71,2.1,3.22,5.05,5.69,8.86,7.39,3.81,1.71,8.25,2.56,13.33,2.56,6.05,0,11.15-1.05,15.3-3.15,4.15-2.1,6.81-4.85,7.98-8.27h19.77c-.78,5.08-3.17,9.57-7.17,13.47-4,3.91-9.13,6.93-15.38,9.08-6.25,2.15-13.23,3.22-20.94,3.22Zm-25.63-46.57l-.73-1.17h50.67l-1.17,1.03c-.1-4-1.1-7.47-3-10.4-1.9-2.93-4.59-5.17-8.05-6.74-3.47-1.56-7.64-2.34-12.52-2.34s-9.1.78-12.67,2.34c-3.57,1.56-6.42,3.81-8.57,6.74-2.15,2.93-3.47,6.44-3.95,10.54Z"/>
      <path class="cls-2" d="m468.45,106.75V0h20.79v106.75h-20.79Z"/>
      <path class="cls-1" d="m235.81,121l-24.56-24.56c-1.94-1.94-4.92-2.18-7.12-.72l-1.62-1.62c-.8-.8-.88-2.06-.2-2.97,5.65-7.55,9-16.93,9-27.09,0-25.21-20.61-45.61-45.91-45.26-24.38.34-44.28,20.24-44.62,44.62-.35,25.29,20.05,45.91,45.26,45.91,10.16,0,19.54-3.35,27.09-9,.91-.68,2.17-.6,2.97.2l1.62,1.62c-1.46,2.2-1.22,5.19.72,7.12l16.44,16.44h7.13c5.19,0,9.97-1.75,13.78-4.69Zm-69.76-31.39c-16.34,0-29.58-11.44-29.58-25.56s13.24-25.56,29.58-25.56,29.58,11.44,29.58,25.56-13.24,25.56-29.58,25.56Z"/>
    </g>
  </g>
</svg>