<?xml version="1.0" encoding="UTF-8"?>
<svg id="Layer_2" data-name="Layer 2" xmlns="http://www.w3.org/2000/svg" viewBox="0 0 300 300">
  <defs>
    <style>
      .cls-1 {
        fill: #37d76a;
      }

      .cls-2 {
        fill: #034338;
      }
    </style>
  </defs>
  <g id="Layer_1-2" data-name="Layer 1">
    <g>
      <rect class="cls-1" width="300" height="300" rx="76.42" ry="76.42"/>
      <g>
        <g>
          <path class="cls-2" d="m180.09,211.36l-1.54-1.54c-.76-.76-1.96-.83-2.82-.19-7.17,5.37-16.08,8.55-25.72,8.55-23.94,0-43.31-19.57-42.98-43.59.32-23.15,19.21-42.04,42.36-42.36,24.02-.33,43.59,19.04,43.59,42.98,0,9.65-3.18,18.55-8.55,25.72-.64.86-.57,2.06.19,2.82l1.54,1.54c2.09-1.38,4.92-1.15,6.76.68l23.32,23.32c5.11-3.93,8.4-10.1,8.4-17.04v-66.12c0-8.05-3.05-15.8-8.54-21.69l-46.59-49.96c-10.16-10.9-27.41-10.94-37.63-.1l-47.88,50.82c-5.56,5.9-8.66,13.7-8.66,21.81v65.24c0,11.87,9.62,21.49,21.49,21.49h99.55l-15.61-15.61c-1.84-1.84-2.07-4.68-.68-6.76Z"/>
          <circle class="cls-2" cx="150.01" cy="175.2" r="30.52"/>
        </g>
        <path class="cls-1" d="m216.25,229.28l-23.32-23.32c-1.84-1.84-4.68-2.07-6.76-.68l-1.54-1.54c-.76-.76-.83-1.96-.19-2.82,5.37-7.17,8.55-16.08,8.55-25.72,0-23.94-19.57-43.31-43.59-42.98-23.15.32-42.04,19.21-42.36,42.36-.33,24.02,19.04,43.59,42.98,43.59,9.65,0,18.55-3.18,25.72-8.55.86-.64,2.06-.57,2.82.19l1.54,1.54c-1.38,2.09-1.15,4.92.68,6.76l15.61,15.61h6.77c4.93,0,9.46-1.66,13.09-4.45Zm-66.24-23.57c-16.85,0-30.52-13.66-30.52-30.52s13.66-30.52,30.52-30.52,30.52,13.66,30.52,30.52-13.66,30.52-30.52,30.52Z"/>
      </g>
    </g>
  </g>
</svg>