<?xml version="1.0" encoding="UTF-8"?>
<svg id="Layer_2" data-name="Layer 2" xmlns="http://www.w3.org/2000/svg" viewBox="0 0 180 180">
  <defs>
    <style>
      .cls-1 {
        fill: #37d76a;
      }

      .cls-2 {
        fill: #034338;
      }
    </style>
  </defs>
  <g id="Layer_1-2" data-name="Layer 1">
    <g>
      <rect class="cls-1" width="180" height="180" rx="45.85" ry="45.85"/>
      <g>
        <g>
          <path class="cls-2" d="m108.05,126.82l-.92-.92c-.46-.46-1.18-.5-1.69-.11-4.3,3.22-9.65,5.13-15.43,5.13-14.36,0-25.99-11.74-25.79-26.16.19-13.89,11.53-25.23,25.42-25.42,14.41-.2,26.16,11.42,26.16,25.79,0,5.79-1.91,11.13-5.13,15.43-.39.52-.34,1.24.11,1.69l.92.92c1.25-.83,2.95-.69,4.06.41l13.99,13.99c3.06-2.36,5.04-6.06,5.04-10.22v-39.67c0-4.83-1.83-9.48-5.13-13.01l-27.95-29.98c-6.1-6.54-16.45-6.56-22.58-.06l-28.73,30.49c-3.34,3.54-5.19,8.22-5.19,13.09v39.15c0,7.12,5.77,12.89,12.89,12.89h59.73l-9.37-9.37c-1.1-1.1-1.24-2.81-.41-4.06Z"/>
          <circle class="cls-2" cx="90.01" cy="105.12" r="18.31"/>
        </g>
        <path class="cls-1" d="m129.75,137.57l-13.99-13.99c-1.1-1.1-2.81-1.24-4.06-.41l-.92-.92c-.46-.46-.5-1.18-.11-1.69,3.22-4.3,5.13-9.65,5.13-15.43,0-14.36-11.74-25.99-26.16-25.79-13.89.19-25.23,11.53-25.42,25.42-.2,14.41,11.42,26.16,25.79,26.16,5.79,0,11.13-1.91,15.43-5.13.52-.39,1.24-.34,1.69.11l.92.92c-.83,1.25-.69,2.95.41,4.06l9.37,9.37h4.06c2.96,0,5.68-1,7.85-2.67Zm-39.74-14.14c-10.11,0-18.31-8.2-18.31-18.31s8.2-18.31,18.31-18.31,18.31,8.2,18.31,18.31-8.2,18.31-18.31,18.31Z"/>
      </g>
    </g>
  </g>
</svg>