<?xml version="1.0" encoding="UTF-8"?>
<svg id="Layer_2" data-name="Layer 2" xmlns="http://www.w3.org/2000/svg" viewBox="0 0 32 32">
  <defs>
    <style>
      .cls-1 {
        fill: #37d76a;
      }

      .cls-2 {
        fill: #034338;
      }
    </style>
  </defs>
  <g id="Layer_1-2" data-name="Layer 1">
    <g>
      <rect class="cls-1" x="0" width="32" height="32" rx="8.15" ry="8.15"/>
      <g>
        <g>
          <path class="cls-2" d="m19.21,22.54l-.16-.16c-.08-.08-.21-.09-.3-.02-.77.57-1.71.91-2.74.91-2.55,0-4.62-2.09-4.58-4.65.03-2.47,2.05-4.48,4.52-4.52,2.56-.04,4.65,2.03,4.65,4.58,0,1.03-.34,1.98-.91,2.74-.07.09-.06.22.02.3l.16.16c.22-.15.53-.12.72.07l2.49,2.49c.54-.42.9-1.08.9-1.82v-7.05c0-.86-.33-1.69-.91-2.31l-4.97-5.33c-1.08-1.16-2.92-1.17-4.01-.01l-5.11,5.42c-.59.63-.92,1.46-.92,2.33v6.96c0,1.27,1.03,2.29,2.29,2.29h10.62l-1.67-1.67c-.2-.2-.22-.5-.07-.72Z"/>
          <circle class="cls-2" cx="16" cy="18.69" r="3.26"/>
        </g>
        <path class="cls-1" d="m23.07,24.46l-2.49-2.49c-.2-.2-.5-.22-.72-.07l-.16-.16c-.08-.08-.09-.21-.02-.3.57-.77.91-1.71.91-2.74,0-2.55-2.09-4.62-4.65-4.58-2.47.03-4.48,2.05-4.52,4.52-.04,2.56,2.03,4.65,4.58,4.65,1.03,0,1.98-.34,2.74-.91.09-.07.22-.06.3.02l.16.16c-.15.22-.12.53.07.72l1.67,1.67h.72c.53,0,1.01-.18,1.4-.47Zm-7.07-2.51c-1.8,0-3.26-1.46-3.26-3.26s1.46-3.26,3.26-3.26,3.26,1.46,3.26,3.26-1.46,3.26-3.26,3.26Z"/>
      </g>
    </g>
  </g>
</svg>