<?xml version="1.0" encoding="UTF-8"?>
<svg id="Layer_2" data-name="Layer 2" xmlns="http://www.w3.org/2000/svg" viewBox="0 0 200 224.33">
  <defs>
    <style>
      .cls-1 {
        fill: #37d76a;
      }
    </style>
  </defs>
  <g id="Layer_1-2" data-name="Layer 1">
    <g>
      <path class="cls-1" d="m140.31,194.36l-2.06-2.06c-1.02-1.02-2.62-1.12-3.78-.25-9.61,7.19-21.54,11.45-34.46,11.45-32.07,0-58.02-26.22-57.57-58.4.43-31.01,25.74-56.32,56.75-56.75,32.17-.45,58.4,25.5,58.4,57.57,0,12.92-4.26,24.85-11.45,34.46-.86,1.15-.76,2.76.25,3.78l2.06,2.06c2.79-1.85,6.6-1.55,9.06.92l31.24,31.24c6.84-5.26,11.25-13.53,11.25-22.83v-88.58c0-10.79-4.09-21.17-11.45-29.06L126.14,10.99c-13.61-14.6-36.72-14.66-50.41-.13L11.6,78.93c-7.45,7.91-11.6,18.36-11.6,29.22v87.4c0,15.9,12.89,28.79,28.79,28.79h133.35l-20.91-20.91c-2.46-2.46-2.77-6.26-.92-9.06Z"/>
      <circle class="cls-1" cx="100.02" cy="145.93" r="40.88"/>
    </g>
  </g>
</svg>