<?xml version="1.0" encoding="UTF-8"?>
<svg id="Layer_2" data-name="Layer 2" xmlns="http://www.w3.org/2000/svg" viewBox="0 0 614.28 75">
  <defs>
    <style>
      .cls-1 {
        fill: #37d76a;
      }

      .cls-2 {
        fill: #034338;
      }
    </style>
  </defs>
  <g id="Layer_1-2" data-name="Layer 1">
    <g>
      <g>
        <path class="cls-2" d="m315.93,63.53V0h51.42v10.28h-39.91l1.31-1.31v20.3l-1.31-1.31h36.43v9.67h-36.43l1.31-1.31v27.19h-12.81Z"/>
        <path class="cls-2" d="m374.66,10.72V0h12.37v10.72h-12.37Zm0,52.81V17.17h12.37v46.36h-12.37Z"/>
        <path class="cls-2" d="m396.27,63.53V17.17h11.94l.44,8.8h.7c1.63-3.14,4.08-5.53,7.36-7.19,3.28-1.66,6.81-2.48,10.59-2.48,2.96,0,5.68.39,8.15,1.18,2.47.78,4.59,2,6.36,3.66,1.77,1.66,3.15,3.88,4.14,6.67.99,2.79,1.48,6.22,1.48,10.28v25.45h-12.37v-23.27c0-3.19-.41-5.85-1.22-7.97-.81-2.12-2.11-3.73-3.88-4.84-1.77-1.1-4.05-1.66-6.84-1.66s-5.43.62-7.58,1.87c-2.15,1.25-3.83,2.98-5.05,5.18-1.22,2.21-1.83,4.76-1.83,7.67v23.01h-12.37Z"/>
        <path class="cls-2" d="m476.97,64.49c-3.43,0-6.57-.55-9.41-1.66-2.85-1.1-5.29-2.73-7.32-4.88-2.03-2.15-3.59-4.71-4.66-7.67-1.08-2.96-1.61-6.24-1.61-9.85,0-4.94.94-9.21,2.83-12.81,1.89-3.6,4.59-6.39,8.1-8.37,3.51-1.97,7.57-2.96,12.16-2.96,2.79,0,5.32.36,7.58,1.09,2.27.73,4.27,1.77,6.01,3.14,1.74,1.37,3.11,3.01,4.1,4.92h.52V0h12.37v63.53h-11.85l-.26-8.1h-.52c-1.39,2.67-3.6,4.85-6.62,6.54-3.02,1.68-6.83,2.53-11.42,2.53Zm3.75-9.5c2.96,0,5.53-.57,7.71-1.7,2.18-1.13,3.85-2.7,5.01-4.71,1.16-2,1.74-4.28,1.74-6.84v-2.61c0-1.97-.33-3.78-1-5.4-.67-1.63-1.63-3.04-2.88-4.23-1.25-1.19-2.78-2.09-4.58-2.7-1.8-.61-3.81-.92-6.01-.92-2.96,0-5.52.57-7.67,1.7-2.15,1.13-3.81,2.79-4.97,4.97-1.16,2.18-1.74,4.81-1.74,7.89s.58,5.55,1.74,7.76c1.16,2.21,2.82,3.89,4.97,5.05,2.15,1.16,4.71,1.74,7.67,1.74Z"/>
        <path class="cls-2" d="m542.24,64.31c-5.58,0-10.4-.96-14.47-2.88-4.07-1.92-7.22-4.65-9.46-8.19-2.24-3.54-3.35-7.78-3.35-12.72s1.1-9.29,3.31-12.9c2.21-3.6,5.36-6.39,9.46-8.37,4.1-1.97,8.84-2.96,14.25-2.96,5.81,0,10.73,1.06,14.77,3.18,4.04,2.12,7.06,5.16,9.06,9.11,2,3.95,2.8,8.71,2.4,14.29h-40.96c.12,2.73.8,5.05,2.05,6.97,1.25,1.92,3.01,3.38,5.27,4.4,2.27,1.02,4.91,1.53,7.93,1.53,3.6,0,6.64-.62,9.11-1.87,2.47-1.25,4.05-2.89,4.75-4.92h11.76c-.47,3.02-1.89,5.69-4.27,8.02-2.38,2.32-5.43,4.13-9.15,5.4-3.72,1.28-7.87,1.92-12.46,1.92Zm-15.25-27.71l-.44-.7h30.15l-.7.61c-.06-2.38-.65-4.44-1.79-6.19-1.13-1.74-2.73-3.08-4.79-4.01-2.06-.93-4.55-1.39-7.45-1.39s-5.42.47-7.54,1.39c-2.12.93-3.82,2.27-5.1,4.01-1.28,1.74-2.06,3.83-2.35,6.27Z"/>
        <path class="cls-2" d="m575.53,63.53V17.17h11.24l.52,7.67h.35c1.05-2.56,2.69-4.59,4.92-6.1,2.24-1.51,4.95-2.27,8.15-2.27.81,0,1.57.03,2.27.09.7.06,1.28.12,1.74.17v11.24c-.64-.12-1.32-.22-2.05-.31-.73-.09-1.47-.13-2.22-.13-2.44,0-4.59.44-6.45,1.31-1.86.87-3.31,2.22-4.36,4.05-1.05,1.83-1.63,4.17-1.74,7.02v23.62h-12.37Z"/>
        <path class="cls-1" d="m606.86,64.31c-1.13,0-2.15-.15-3.06-.44-.91-.29-1.69-.72-2.35-1.29-.66-.57-1.17-1.25-1.51-2.05-.35-.8-.52-1.72-.52-2.74,0-1.35.31-2.52.92-3.48.61-.97,1.48-1.72,2.59-2.24,1.11-.53,2.42-.79,3.93-.79,1.1,0,2.11.15,3.02.45.91.3,1.7.73,2.35,1.29.65.56,1.16,1.24,1.51,2.04s.53,1.72.53,2.74c0,1.34-.31,2.5-.92,3.47-.61.98-1.48,1.73-2.59,2.26-1.11.53-2.41.79-3.91.79Z"/>
      </g>
      <g>
        <path class="cls-2" d="m0,63.7V0h12.84v27.26l-.96-.96h39.76l-.87.96V0h12.84v63.7h-12.84v-28.14l.87.96H11.88l.96-.96v28.14H0Z"/>
        <path class="cls-2" d="m155.44,64.57c-7.75,0-13.72-1.41-17.91-4.24-4.19-2.82-6.41-6.6-6.64-11.32h12.15c.18,2.51,1.34,4.44,3.5,5.81,2.15,1.37,5.21,2.05,9.17,2.05,3.55,0,6.35-.49,8.39-1.49,2.04-.99,3.06-2.5,3.06-4.54,0-1.51-.39-2.69-1.18-3.54-.79-.84-2.08-1.46-3.89-1.84-1.81-.38-4.28-.71-7.43-1-3.96-.41-7.35-.93-10.18-1.57-2.83-.64-5.11-1.46-6.86-2.45-1.75-.99-3.04-2.27-3.89-3.84-.84-1.57-1.27-3.5-1.27-5.77,0-2.97.93-5.55,2.8-7.73,1.86-2.18,4.5-3.86,7.91-5.02,3.41-1.16,7.5-1.75,12.28-1.75,4.48,0,8.36.58,11.62,1.75,3.26,1.17,5.84,2.84,7.73,5.02,1.89,2.18,2.96,4.85,3.19,8h-11.71c-.23-1.63-.83-2.97-1.79-4.02s-2.21-1.82-3.76-2.32c-1.54-.49-3.34-.74-5.37-.74-3.15,0-5.74.47-7.78,1.4-2.04.93-3.06,2.42-3.06,4.46,0,1.34.42,2.39,1.27,3.15.84.76,2.2,1.33,4.06,1.7,1.86.38,4.31.74,7.34,1.09,3.96.29,7.37.74,10.22,1.35,2.85.61,5.16,1.46,6.9,2.53,1.75,1.08,3.03,2.43,3.84,4.06.81,1.63,1.22,3.7,1.22,6.2,0,4.37-1.97,7.89-5.9,10.57-3.93,2.68-9.95,4.02-18.04,4.02Z"/>
        <path class="cls-2" d="m202.98,63.7c-2.45,0-4.57-.39-6.38-1.18-1.81-.79-3.19-1.98-4.15-3.58-.96-1.6-1.44-3.63-1.44-6.07v-26.21h-9.09v-9.44h9.09V4.81l12.15-2.36v14.77h11.88v9.44h-11.88v22.37c0,1.52.41,2.56,1.22,3.15.81.58,2.01.87,3.58.87h7.08v10.66h-12.06Z"/>
        <path class="cls-2" d="m246.14,64.48c-5.59,0-10.43-.96-14.5-2.88-4.08-1.92-7.24-4.66-9.48-8.21-2.24-3.55-3.36-7.81-3.36-12.76s1.11-9.32,3.32-12.93c2.21-3.61,5.37-6.41,9.48-8.39,4.11-1.98,8.87-2.97,14.29-2.97,5.82,0,10.76,1.06,14.81,3.19,4.05,2.13,7.08,5.17,9.09,9.13,2.01,3.96,2.81,8.74,2.4,14.33h-41.07c.12,2.74.8,5.07,2.05,6.99,1.25,1.92,3.01,3.39,5.29,4.41,2.27,1.02,4.92,1.53,7.95,1.53,3.61,0,6.65-.63,9.13-1.88,2.48-1.25,4.06-2.9,4.76-4.94h11.8c-.47,3.03-1.89,5.71-4.28,8.04-2.39,2.33-5.45,4.14-9.17,5.42-3.73,1.28-7.89,1.92-12.5,1.92Zm-15.29-27.79l-.44-.7h30.23l-.7.61c-.06-2.39-.66-4.46-1.79-6.2-1.14-1.75-2.74-3.09-4.81-4.02-2.07-.93-4.56-1.4-7.47-1.4s-5.43.47-7.56,1.4c-2.13.93-3.83,2.27-5.11,4.02-1.28,1.75-2.07,3.84-2.36,6.29Z"/>
        <path class="cls-2" d="m279.52,63.7V0h12.41v63.7h-12.41Z"/>
        <path class="cls-1" d="m140.7,72.2l-14.65-14.65c-1.15-1.15-2.94-1.3-4.25-.43l-.97-.97c-.48-.48-.52-1.23-.12-1.77,3.37-4.51,5.37-10.1,5.37-16.17,0-15.04-12.3-27.22-27.39-27.01-14.55.2-26.42,12.07-26.62,26.62-.21,15.09,11.96,27.39,27.01,27.39,6.06,0,11.66-2,16.17-5.37.54-.4,1.29-.36,1.77.12l.97.97c-.87,1.31-.73,3.09.43,4.25l9.81,9.81h4.26c3.1,0,5.95-1.04,8.23-2.8Zm-41.62-18.73c-9.75,0-17.65-6.83-17.65-15.25s7.9-15.25,17.65-15.25,17.65,6.83,17.65,15.25-7.9,15.25-17.65,15.25Z"/>
      </g>
    </g>
  </g>
</svg>