<?xml version="1.0" encoding="UTF-8"?>
<svg id="Layer_2" data-name="Layer 2" xmlns="http://www.w3.org/2000/svg" viewBox="0 0 659.58 120">
  <defs>
    <style>
      .cls-1 {
        fill: #fff;
      }

      .cls-2 {
        fill: #37d76a;
      }

      .cls-3 {
        fill: #034338;
      }
    </style>
  </defs>
  <g id="Layer_1-2" data-name="Layer 1">
    <g>
      <g>
        <g>
          <path class="cls-2" d="m75.05,103.97l-1.1-1.1c-.54-.54-1.4-.6-2.02-.14-5.14,3.85-11.52,6.12-18.43,6.12-17.16,0-31.03-14.03-30.8-31.24.23-16.59,13.77-30.13,30.36-30.36,17.21-.24,31.24,13.64,31.24,30.8,0,6.91-2.28,13.29-6.12,18.43-.46.62-.41,1.48.14,2.02l1.1,1.1c1.49-.99,3.53-.83,4.85.49l16.71,16.71c3.66-2.82,6.02-7.24,6.02-12.21v-47.38c0-5.77-2.19-11.32-6.12-15.54L67.48,5.88c-7.28-7.81-19.64-7.84-26.96-.07L6.2,42.22c-3.98,4.23-6.2,9.82-6.2,15.63v46.75c0,8.5,6.89,15.4,15.4,15.4h71.33l-11.19-11.19c-1.32-1.32-1.48-3.35-.49-4.85Z"/>
          <circle class="cls-2" cx="53.5" cy="78.06" r="21.87"/>
        </g>
        <path class="cls-3" d="m100.96,116.81l-16.71-16.71c-1.32-1.32-3.35-1.48-4.85-.49l-1.1-1.1c-.54-.54-.6-1.4-.14-2.02,3.85-5.14,6.12-11.52,6.12-18.43,0-17.16-14.03-31.03-31.24-30.8-16.59.23-30.13,13.77-30.36,30.36-.24,17.21,13.64,31.24,30.8,31.24,6.91,0,13.29-2.28,18.43-6.12.62-.46,1.48-.41,2.02.14l1.1,1.1c-.99,1.49-.83,3.53.49,4.85l11.19,11.19h4.85c3.53,0,6.78-1.19,9.38-3.19Zm-47.46-16.89c-12.08,0-21.87-9.79-21.87-21.87s9.79-21.87,21.87-21.87,21.87,9.79,21.87,21.87-9.79,21.87-21.87,21.87Z"/>
      </g>
      <g>
        <path class="cls-1" d="m155.45,93.17v-52.49h10.58v22.46l-.79-.79h32.76l-.72.79v-22.46h10.58v52.49h-10.58v-23.18l.72.79h-32.76l.79-.79v23.18h-10.58Z"/>
        <path class="cls-1" d="m237.17,93.89c-3.46,0-6.56-.44-9.32-1.33-2.76-.89-5.15-2.2-7.16-3.92-2.02-1.73-3.55-3.82-4.61-6.26-1.06-2.45-1.58-5.23-1.58-8.35,0-4.13.94-7.67,2.81-10.62,1.87-2.95,4.5-5.23,7.88-6.84,3.38-1.61,7.38-2.41,11.99-2.41,3.36,0,6.43.46,9.22,1.37,2.78.91,5.17,2.22,7.16,3.92,1.99,1.71,3.53,3.78,4.61,6.23s1.62,5.23,1.62,8.35c0,4.08-.94,7.61-2.81,10.58-1.87,2.98-4.5,5.27-7.88,6.88-3.38,1.61-7.36,2.41-11.92,2.41Zm-.07-7.99c2.64,0,4.88-.48,6.73-1.44,1.85-.96,3.28-2.34,4.28-4.14,1.01-1.8,1.51-3.9,1.51-6.3,0-1.78-.29-3.41-.86-4.9-.58-1.49-1.4-2.75-2.48-3.78-1.08-1.03-2.39-1.84-3.92-2.41-1.54-.58-3.26-.86-5.18-.86-2.59,0-4.82.49-6.7,1.48-1.87.98-3.3,2.38-4.28,4.18-.98,1.8-1.48,3.9-1.48,6.3,0,1.83.28,3.47.83,4.93.55,1.46,1.36,2.71,2.41,3.74,1.06,1.03,2.36,1.82,3.92,2.38,1.56.55,3.3.83,5.22.83Z"/>
        <path class="cls-1" d="m283.53,93.89c-6.38,0-11.3-1.16-14.76-3.49-3.46-2.33-5.28-5.44-5.47-9.32h10.01c.14,2.06,1.1,3.66,2.88,4.79,1.78,1.13,4.29,1.69,7.56,1.69,2.93,0,5.23-.41,6.91-1.22,1.68-.82,2.52-2.06,2.52-3.74,0-1.25-.32-2.22-.97-2.92-.65-.7-1.72-1.2-3.2-1.51-1.49-.31-3.53-.59-6.12-.83-3.26-.33-6.06-.77-8.39-1.3-2.33-.53-4.21-1.2-5.65-2.02-1.44-.82-2.51-1.87-3.21-3.17s-1.04-2.88-1.04-4.75c0-2.45.77-4.57,2.3-6.37,1.54-1.8,3.71-3.18,6.52-4.14,2.81-.96,6.18-1.44,10.12-1.44,3.7,0,6.89.48,9.58,1.44,2.69.96,4.81,2.34,6.37,4.14,1.56,1.8,2.44,4,2.63,6.59h-9.65c-.19-1.34-.68-2.45-1.48-3.31s-1.83-1.5-3.1-1.91c-1.27-.41-2.75-.61-4.43-.61-2.59,0-4.73.38-6.41,1.15-1.68.77-2.52,1.99-2.52,3.67,0,1.11.35,1.97,1.04,2.59.7.62,1.81,1.09,3.35,1.4,1.54.31,3.55.61,6.05.9,3.26.24,6.07.61,8.42,1.12,2.35.5,4.25,1.2,5.69,2.09,1.44.89,2.49,2,3.17,3.35.67,1.34,1.01,3.05,1.01,5.11,0,3.6-1.62,6.5-4.86,8.71-3.24,2.21-8.2,3.31-14.87,3.31Z"/>
        <path class="cls-1" d="m322.7,93.17c-2.02,0-3.77-.32-5.26-.97-1.49-.65-2.63-1.63-3.42-2.95-.79-1.32-1.19-2.99-1.19-5v-21.6h-7.49v-7.78h7.49v-10.22l10.01-1.94v12.17h9.79v7.78h-9.79v18.43c0,1.25.34,2.11,1.01,2.59.67.48,1.66.72,2.95.72h5.83v8.78h-9.94Z"/>
        <path class="cls-1" d="m358.27,93.81c-4.61,0-8.59-.79-11.95-2.38-3.36-1.58-5.96-3.84-7.81-6.77-1.85-2.93-2.77-6.43-2.77-10.51s.91-7.68,2.74-10.66c1.82-2.98,4.43-5.28,7.81-6.91,3.38-1.63,7.31-2.45,11.77-2.45,4.8,0,8.87.88,12.2,2.63,3.34,1.75,5.83,4.26,7.49,7.52,1.66,3.26,2.32,7.2,1.98,11.81h-33.84c.1,2.26.66,4.18,1.69,5.76,1.03,1.58,2.48,2.8,4.36,3.64,1.87.84,4.06,1.26,6.55,1.26,2.98,0,5.48-.51,7.52-1.55,2.04-1.03,3.35-2.39,3.92-4.07h9.72c-.38,2.5-1.56,4.71-3.53,6.62-1.97,1.92-4.49,3.41-7.56,4.46-3.07,1.05-6.5,1.58-10.3,1.58Zm-12.6-22.9l-.36-.58h24.91l-.58.5c-.05-1.97-.54-3.67-1.48-5.11-.94-1.44-2.26-2.54-3.96-3.31-1.71-.77-3.76-1.15-6.16-1.15s-4.48.38-6.23,1.15c-1.75.77-3.16,1.87-4.21,3.31-1.06,1.44-1.7,3.17-1.94,5.18Z"/>
        <path class="cls-1" d="m385.77,93.17v-52.49h10.22v52.49h-10.22Z"/>
        <path class="cls-1" d="m419.97,93.17v-52.49h42.48v8.5h-32.98l1.08-1.08v16.78l-1.08-1.08h30.1v7.99h-30.1l1.08-1.08v22.46h-10.58Z"/>
        <path class="cls-1" d="m468.5,49.53v-8.86h10.22v8.86h-10.22Zm0,43.63v-38.3h10.22v38.3h-10.22Z"/>
        <path class="cls-1" d="m486.35,93.17v-38.3h9.86l.36,7.27h.58c1.34-2.59,3.37-4.57,6.08-5.94,2.71-1.37,5.63-2.05,8.75-2.05,2.45,0,4.69.32,6.73.97,2.04.65,3.79,1.66,5.26,3.02,1.46,1.37,2.6,3.2,3.42,5.51.81,2.3,1.22,5.14,1.22,8.5v21.02h-10.22v-19.22c0-2.64-.34-4.84-1.01-6.59s-1.74-3.08-3.2-4c-1.46-.91-3.35-1.37-5.65-1.37s-4.49.52-6.26,1.55c-1.78,1.03-3.17,2.46-4.18,4.28s-1.51,3.94-1.51,6.34v19.01h-10.22Z"/>
        <path class="cls-1" d="m553.03,93.96c-2.83,0-5.43-.46-7.78-1.37s-4.37-2.26-6.05-4.03c-1.68-1.77-2.96-3.89-3.85-6.34-.89-2.45-1.33-5.16-1.33-8.14,0-4.08.78-7.61,2.34-10.58,1.56-2.98,3.79-5.28,6.7-6.91,2.9-1.63,6.25-2.45,10.04-2.45,2.3,0,4.39.3,6.27.9,1.87.6,3.53,1.46,4.97,2.59,1.44,1.13,2.57,2.48,3.38,4.07h.43v-21.02h10.22v52.49h-9.79l-.21-6.7h-.43c-1.15,2.21-2.98,4.01-5.47,5.4-2.5,1.39-5.64,2.09-9.43,2.09Zm3.1-7.85c2.45,0,4.57-.47,6.37-1.4,1.8-.94,3.18-2.23,4.14-3.89.96-1.66,1.44-3.54,1.44-5.65v-2.16c0-1.63-.28-3.12-.83-4.46-.55-1.34-1.34-2.51-2.38-3.49-1.03-.98-2.29-1.73-3.78-2.23s-3.14-.76-4.97-.76c-2.45,0-4.56.47-6.34,1.4-1.78.94-3.14,2.3-4.1,4.1-.96,1.8-1.44,3.97-1.44,6.52s.48,4.58,1.44,6.41c.96,1.82,2.33,3.22,4.1,4.18,1.78.96,3.89,1.44,6.34,1.44Z"/>
        <path class="cls-1" d="m606.95,93.81c-4.61,0-8.59-.79-11.95-2.38s-5.96-3.84-7.81-6.77c-1.85-2.93-2.77-6.43-2.77-10.51s.91-7.68,2.74-10.66c1.82-2.98,4.43-5.28,7.81-6.91,3.38-1.63,7.31-2.45,11.77-2.45,4.8,0,8.87.88,12.2,2.63,3.34,1.75,5.83,4.26,7.49,7.52,1.66,3.26,2.32,7.2,1.98,11.81h-33.84c.1,2.26.66,4.18,1.69,5.76,1.03,1.58,2.48,2.8,4.36,3.64,1.87.84,4.06,1.26,6.55,1.26,2.98,0,5.48-.51,7.52-1.55,2.04-1.03,3.35-2.39,3.92-4.07h9.72c-.38,2.5-1.56,4.71-3.53,6.62-1.97,1.92-4.49,3.41-7.56,4.46-3.07,1.05-6.5,1.58-10.3,1.58Zm-12.6-22.9l-.36-.58h24.91l-.58.5c-.05-1.97-.54-3.67-1.48-5.11-.94-1.44-2.26-2.54-3.96-3.31-1.71-.77-3.76-1.15-6.16-1.15s-4.48.38-6.23,1.15c-1.75.77-3.16,1.87-4.21,3.31-1.06,1.44-1.71,3.17-1.95,5.18Z"/>
        <path class="cls-1" d="m634.46,93.17v-38.3h9.29l.43,6.34h.29c.87-2.11,2.22-3.79,4.07-5.04,1.85-1.25,4.09-1.87,6.73-1.87.67,0,1.29.02,1.87.07s1.05.1,1.44.14v9.29c-.53-.1-1.09-.18-1.69-.25s-1.21-.11-1.84-.11c-2.02,0-3.79.36-5.33,1.08-1.54.72-2.74,1.84-3.6,3.35-.86,1.51-1.34,3.44-1.44,5.8v19.51h-10.22Z"/>
      </g>
    </g>
  </g>
</svg>