<?xml version="1.0" encoding="UTF-8"?>
<svg id="Layer_2" data-name="Layer 2" xmlns="http://www.w3.org/2000/svg" viewBox="0 0 508.6 449.16">
  <defs>
    <style>
      .cls-1 {
        fill: #fff;
      }

      .cls-2 {
        fill: #37d76a;
      }

      .cls-3 {
        fill: #034338;
      }
    </style>
  </defs>
  <g id="Layer_1-2" data-name="Layer 1">
    <g>
      <rect class="cls-2" x="104.3" y="0" width="300" height="300" rx="76.42" ry="76.42"/>
      <g>
        <g>
          <path class="cls-3" d="m284.39,211.36l-1.54-1.54c-.76-.76-1.96-.83-2.82-.19-7.17,5.37-16.08,8.55-25.72,8.55-23.94,0-43.31-19.57-42.98-43.59.32-23.15,19.21-42.04,42.36-42.36,24.02-.33,43.59,19.04,43.59,42.98,0,9.65-3.18,18.55-8.55,25.72-.64.86-.57,2.06.19,2.82l1.54,1.54c2.09-1.38,4.92-1.15,6.76.68l23.32,23.32c5.11-3.93,8.4-10.1,8.4-17.04v-66.12c0-8.05-3.05-15.8-8.54-21.69l-46.59-49.96c-10.16-10.9-27.41-10.94-37.63-.1l-47.88,50.82c-5.56,5.9-8.66,13.7-8.66,21.81v65.24c0,11.87,9.62,21.49,21.49,21.49h99.55l-15.61-15.61c-1.84-1.84-2.07-4.68-.68-6.76Z"/>
          <circle class="cls-3" cx="254.31" cy="175.2" r="30.52"/>
        </g>
        <path class="cls-2" d="m320.55,229.28l-23.32-23.32c-1.84-1.84-4.68-2.07-6.76-.68l-1.54-1.54c-.76-.76-.83-1.96-.19-2.82,5.37-7.17,8.55-16.08,8.55-25.72,0-23.94-19.57-43.31-43.59-42.98-23.15.32-42.04,19.21-42.36,42.36-.33,24.02,19.04,43.59,42.98,43.59,9.65,0,18.55-3.18,25.72-8.55.86-.64,2.06-.57,2.82.19l1.54,1.54c-1.38,2.09-1.15,4.92.68,6.76l15.61,15.61h6.77c4.93,0,9.46-1.66,13.09-4.45Zm-66.24-23.57c-16.85,0-30.52-13.66-30.52-30.52s13.66-30.52,30.52-30.52,30.52,13.66,30.52,30.52-13.66,30.52-30.52,30.52Z"/>
      </g>
    </g>
    <g>
      <path class="cls-1" d="m4.46,433.24v-52.49h10.58v22.46l-.79-.79h32.76l-.72.79v-22.46h10.58v52.49h-10.58v-23.18l.72.79H14.26l.79-.79v23.18H4.46Z"/>
      <path class="cls-1" d="m86.18,433.96c-3.46,0-6.56-.44-9.32-1.33-2.76-.89-5.15-2.2-7.16-3.92-2.02-1.73-3.55-3.82-4.61-6.26-1.06-2.45-1.58-5.23-1.58-8.35,0-4.13.94-7.67,2.81-10.62,1.87-2.95,4.5-5.23,7.88-6.84,3.38-1.61,7.38-2.41,11.99-2.41,3.36,0,6.43.46,9.22,1.37,2.78.91,5.17,2.22,7.16,3.92,1.99,1.71,3.53,3.78,4.61,6.23s1.62,5.23,1.62,8.35c0,4.08-.94,7.61-2.81,10.58-1.87,2.98-4.5,5.27-7.88,6.88-3.38,1.61-7.36,2.41-11.92,2.41Zm-.07-7.99c2.64,0,4.88-.48,6.73-1.44,1.85-.96,3.28-2.34,4.28-4.14,1.01-1.8,1.51-3.9,1.51-6.3,0-1.78-.29-3.41-.86-4.9-.58-1.49-1.4-2.75-2.48-3.78-1.08-1.03-2.39-1.84-3.92-2.41-1.54-.58-3.27-.86-5.18-.86-2.59,0-4.82.49-6.7,1.48-1.87.98-3.3,2.38-4.28,4.18-.98,1.8-1.48,3.9-1.48,6.3,0,1.83.28,3.47.83,4.93.55,1.46,1.36,2.71,2.41,3.74,1.06,1.03,2.36,1.82,3.92,2.38,1.56.55,3.3.83,5.22.83Z"/>
      <path class="cls-1" d="m132.55,433.96c-6.38,0-11.3-1.16-14.76-3.49-3.46-2.33-5.28-5.44-5.47-9.32h10.01c.14,2.06,1.1,3.66,2.88,4.79,1.78,1.13,4.29,1.69,7.56,1.69,2.93,0,5.23-.41,6.91-1.22,1.68-.82,2.52-2.06,2.52-3.74,0-1.25-.32-2.22-.97-2.92-.65-.7-1.72-1.2-3.2-1.51-1.49-.31-3.53-.59-6.12-.83-3.26-.33-6.06-.77-8.39-1.3s-4.21-1.2-5.65-2.02c-1.44-.82-2.51-1.87-3.2-3.17-.7-1.3-1.04-2.88-1.04-4.75,0-2.45.77-4.57,2.3-6.37,1.54-1.8,3.71-3.18,6.52-4.14,2.81-.96,6.18-1.44,10.12-1.44,3.7,0,6.89.48,9.58,1.44,2.69.96,4.81,2.34,6.37,4.14,1.56,1.8,2.44,4,2.63,6.59h-9.65c-.19-1.34-.68-2.45-1.48-3.31s-1.82-1.5-3.1-1.91c-1.27-.41-2.75-.61-4.43-.61-2.59,0-4.73.38-6.41,1.15-1.68.77-2.52,1.99-2.52,3.67,0,1.11.35,1.97,1.04,2.59.7.62,1.81,1.09,3.35,1.4,1.54.31,3.55.61,6.05.9,3.26.24,6.07.61,8.42,1.12,2.35.5,4.25,1.2,5.69,2.09,1.44.89,2.5,2,3.17,3.35.67,1.34,1.01,3.05,1.01,5.11,0,3.6-1.62,6.5-4.86,8.71-3.24,2.21-8.2,3.31-14.87,3.31Z"/>
      <path class="cls-1" d="m171.72,433.24c-2.02,0-3.77-.32-5.26-.97-1.49-.65-2.63-1.63-3.42-2.95-.79-1.32-1.19-2.99-1.19-5v-21.6h-7.49v-7.78h7.49v-10.22l10.01-1.94v12.17h9.79v7.78h-9.79v18.43c0,1.25.33,2.11,1.01,2.59.67.48,1.66.72,2.95.72h5.83v8.78h-9.94Z"/>
      <path class="cls-1" d="m207.29,433.89c-4.61,0-8.59-.79-11.95-2.38-3.36-1.58-5.96-3.84-7.81-6.77-1.85-2.93-2.77-6.43-2.77-10.51s.91-7.68,2.74-10.66c1.82-2.98,4.43-5.28,7.81-6.91,3.38-1.63,7.31-2.45,11.77-2.45,4.8,0,8.87.88,12.2,2.63,3.34,1.75,5.83,4.26,7.49,7.52,1.66,3.26,2.31,7.2,1.98,11.81h-33.84c.1,2.26.66,4.18,1.69,5.76,1.03,1.58,2.48,2.8,4.36,3.64,1.87.84,4.06,1.26,6.55,1.26,2.98,0,5.48-.51,7.52-1.55,2.04-1.03,3.35-2.39,3.92-4.07h9.72c-.38,2.5-1.56,4.71-3.53,6.62-1.97,1.92-4.49,3.41-7.56,4.46-3.07,1.05-6.5,1.58-10.3,1.58Zm-12.6-22.9l-.36-.58h24.91l-.58.5c-.05-1.97-.54-3.67-1.48-5.11-.94-1.44-2.26-2.54-3.96-3.31-1.71-.77-3.76-1.15-6.16-1.15s-4.48.38-6.23,1.15c-1.75.77-3.16,1.87-4.21,3.31-1.06,1.44-1.7,3.17-1.94,5.18Z"/>
      <path class="cls-1" d="m234.79,433.24v-52.49h10.22v52.49h-10.22Z"/>
      <path class="cls-1" d="m268.99,433.24v-52.49h42.48v8.5h-32.98l1.08-1.08v16.78l-1.08-1.08h30.1v7.99h-30.1l1.08-1.08v22.46h-10.58Z"/>
      <path class="cls-1" d="m317.52,389.61v-8.86h10.22v8.86h-10.22Zm0,43.63v-38.3h10.22v38.3h-10.22Z"/>
      <path class="cls-1" d="m335.37,433.24v-38.3h9.86l.36,7.27h.58c1.34-2.59,3.37-4.57,6.08-5.94,2.71-1.37,5.63-2.05,8.75-2.05,2.45,0,4.69.32,6.73.97,2.04.65,3.79,1.66,5.26,3.02s2.6,3.2,3.42,5.51c.82,2.3,1.22,5.14,1.22,8.5v21.02h-10.22v-19.22c0-2.64-.34-4.84-1.01-6.59-.67-1.75-1.74-3.08-3.2-4s-3.35-1.37-5.65-1.37-4.49.52-6.26,1.55c-1.78,1.03-3.17,2.46-4.18,4.28s-1.51,3.94-1.51,6.34v19.01h-10.22Z"/>
      <path class="cls-1" d="m402.04,434.04c-2.83,0-5.42-.46-7.78-1.37-2.35-.91-4.37-2.26-6.05-4.03-1.68-1.77-2.96-3.89-3.85-6.34-.89-2.45-1.33-5.16-1.33-8.14,0-4.08.78-7.61,2.34-10.58,1.56-2.98,3.79-5.28,6.7-6.91,2.9-1.63,6.25-2.45,10.04-2.45,2.3,0,4.39.3,6.26.9,1.87.6,3.53,1.46,4.97,2.59,1.44,1.13,2.57,2.48,3.38,4.07h.43v-21.02h10.22v52.49h-9.79l-.22-6.7h-.43c-1.15,2.21-2.98,4.01-5.47,5.4-2.5,1.39-5.64,2.09-9.43,2.09Zm3.1-7.85c2.45,0,4.57-.47,6.37-1.4,1.8-.94,3.18-2.23,4.14-3.89.96-1.66,1.44-3.54,1.44-5.65v-2.16c0-1.63-.28-3.12-.83-4.46-.55-1.34-1.34-2.51-2.38-3.49-1.03-.98-2.29-1.73-3.78-2.23-1.49-.5-3.14-.76-4.97-.76-2.45,0-4.56.47-6.34,1.4-1.78.94-3.14,2.3-4.1,4.1-.96,1.8-1.44,3.97-1.44,6.52s.48,4.58,1.44,6.41c.96,1.82,2.33,3.22,4.1,4.18,1.78.96,3.89,1.44,6.34,1.44Z"/>
      <path class="cls-1" d="m455.97,433.89c-4.61,0-8.59-.79-11.95-2.38-3.36-1.58-5.96-3.84-7.81-6.77-1.85-2.93-2.77-6.43-2.77-10.51s.91-7.68,2.74-10.66c1.82-2.98,4.43-5.28,7.81-6.91,3.38-1.63,7.31-2.45,11.77-2.45,4.8,0,8.87.88,12.2,2.63,3.34,1.75,5.83,4.26,7.49,7.52,1.66,3.26,2.32,7.2,1.98,11.81h-33.84c.1,2.26.66,4.18,1.69,5.76,1.03,1.58,2.48,2.8,4.36,3.64,1.87.84,4.06,1.26,6.55,1.26,2.98,0,5.48-.51,7.52-1.55,2.04-1.03,3.35-2.39,3.92-4.07h9.72c-.38,2.5-1.56,4.71-3.53,6.62-1.97,1.92-4.49,3.41-7.56,4.46-3.07,1.05-6.5,1.58-10.3,1.58Zm-12.6-22.9l-.36-.58h24.91l-.58.5c-.05-1.97-.54-3.67-1.48-5.11-.94-1.44-2.26-2.54-3.96-3.31-1.7-.77-3.76-1.15-6.16-1.15s-4.48.38-6.23,1.15c-1.75.77-3.16,1.87-4.21,3.31-1.06,1.44-1.71,3.17-1.94,5.18Z"/>
      <path class="cls-1" d="m483.47,433.24v-38.3h9.29l.43,6.34h.29c.86-2.11,2.22-3.79,4.07-5.04,1.85-1.25,4.09-1.87,6.73-1.87.67,0,1.3.02,1.87.07s1.05.1,1.44.14v9.29c-.53-.1-1.09-.18-1.69-.25-.6-.07-1.21-.11-1.84-.11-2.02,0-3.79.36-5.33,1.08-1.54.72-2.74,1.84-3.6,3.35-.86,1.51-1.34,3.44-1.44,5.8v19.51h-10.22Z"/>
    </g>
  </g>
</svg>